<svg xmlns="http://www.w3.org/2000/svg" viewBox="0 0 31.64 31.64"><defs><style>.cls-1{fill:#f0b817;}</style></defs><g id="Capa_2" data-name="Capa 2"><g id="Capa_1-2" data-name="Capa 1"><path class="cls-1" d="M6.18,2.77a2.31,2.31,0,0,0-1.47.64,3.88,3.88,0,0,0-.31.26A5.84,5.84,0,0,0,2.47,8.09c-.08,4.12,3.24,9.59,7.46,13.8s9.48,7.34,13.61,7.26A5.79,5.79,0,0,0,28,27.24l.26-.31a2.31,2.31,0,0,0,.64-1.47,1.31,1.31,0,0,0-.58-1.15l-.08-.06L23.5,21.11A1.16,1.16,0,0,0,22,21.2l-.06.05-1.42,1.43A2.57,2.57,0,0,1,17,22.9,45.26,45.26,0,0,1,12.5,19a45.34,45.34,0,0,1-3.77-4.28,2.58,2.58,0,0,1,.15-3.48L9,11.13l1.42-1.42a1.12,1.12,0,0,0,.17-1.51l0-.06L7.38,3.43a1.33,1.33,0,0,0-1.2-.66M6.18,0A4,4,0,0,1,9.34,2l.09.13L12.7,6.83a3.32,3.32,0,0,1-.16,4.42l-.08.09-1.23,1.25a.76.76,0,0,0-.18,1.05A22.51,22.51,0,0,0,13.86,17l.31.31A29.32,29.32,0,0,0,18,20.57a.73.73,0,0,0,1-.1l.05-.06,1.25-1.24a3.3,3.3,0,0,1,4.42-.29l.09.06,4.71,3.27c1.44,1,2.12,2.09,2.12,3.25a4.69,4.69,0,0,1-1.31,3l-.11.13c-.12.13-.25.28-.38.41a7.6,7.6,0,0,1-6.32,2.6c-4.61,0-10.26-2.88-15.45-8.07S0,12.71,0,8.09A7.65,7.65,0,0,1,2.6,1.78L3,1.42A4.7,4.7,0,0,1,6.18,0"/></g></g></svg>