<svg xmlns="http://www.w3.org/2000/svg" viewBox="0 0 24.15 29.92"><defs><style>.cls-1{fill:#f0b817;}</style></defs><g id="Capa_2" data-name="Capa 2"><g id="Capa_1-2" data-name="Capa 1"><path class="cls-1" d="M12.08,29.92l-1-1C9.92,27.9,0,18.39,0,12.08a12.08,12.08,0,1,1,24.15,0c0,6.31-9.92,15.82-11,16.88ZM12.08,3A9.09,9.09,0,0,0,3,12.08c0,3.81,5.83,10.44,9.08,13.69,3.24-3.25,9.07-9.88,9.07-13.69A9.08,9.08,0,0,0,12.08,3Z"/><path class="cls-1" d="M12.08,17a4.9,4.9,0,1,1,4.9-4.9A4.9,4.9,0,0,1,12.08,17Zm0-6.8a1.9,1.9,0,1,0,1.9,1.9A1.9,1.9,0,0,0,12.08,10.18Z"/></g></g></svg>