<svg xmlns="http://www.w3.org/2000/svg" viewBox="0 0 116.32 116.07"><defs><style>.cls-1{fill:#14455b;}.cls-2{fill:#16b28c;}.cls-3{fill:#efb718;}.cls-4{fill:#e05b19;}.cls-5{fill:#dd2b19;}</style></defs><g id="Capa_2" data-name="Capa 2"><g id="Capa_1-2" data-name="Capa 1"><path class="cls-1" d="M24.93,50.4a9.14,9.14,0,0,0,1.19-4.9V25.85A12.24,12.24,0,0,0,25.2,21a10.24,10.24,0,0,0-2.65-3.68A12,12,0,0,0,18.4,15a16.44,16.44,0,0,0-5.34-.82H1.36a1.27,1.27,0,0,0-1,.41,1.51,1.51,0,0,0-.34,1V93a1.51,1.51,0,0,0,.34,1,1.27,1.27,0,0,0,1,.41h11.7q6,0,9.52-3.13l.6-.57L26.1,60.6a8.39,8.39,0,0,0-1.17-4.11,9,9,0,0,0-3.3-3A8.86,8.86,0,0,0,24.93,50.4ZM17,82.71a4.55,4.55,0,0,1-.91,2.92,3.67,3.67,0,0,1-3,1.16h-4V57.2h4a3.66,3.66,0,0,1,3,1.16A4.48,4.48,0,0,1,17,61.28ZM17,45.5a4.48,4.48,0,0,1-.95,2.93,3.66,3.66,0,0,1-3,1.16h-4V21.77h4a3.71,3.71,0,0,1,3,1.12,4.44,4.44,0,0,1,.95,3Z"/><path class="cls-2" d="M45.57,94a1.51,1.51,0,0,1-.34-1V60.41l-4.36-44.9a1.8,1.8,0,0,0-.4-.95,1.2,1.2,0,0,0-1-.41H31.83a1.16,1.16,0,0,0-.95.41,1.74,1.74,0,0,0-.41.95L26.1,60.6c0,.22,0,.45,0,.68V82.71a11,11,0,0,1-2.94,8l-.19,2a1.51,1.51,0,0,0,.37,1.15,1.68,1.68,0,0,0,1.39.55h3.34a4.11,4.11,0,0,0,2.82-1A3.56,3.56,0,0,0,32.17,91l.68-11H38.5l.67,11a3.56,3.56,0,0,0,1.26,2.41,4.12,4.12,0,0,0,2.83,1h3.33A1.24,1.24,0,0,1,45.57,94ZM33.32,72.44l2.32-38.7L38,72.44Z"/><path class="cls-3" d="M26.12,61.28V82.71a11,11,0,0,1-2.94,8L26.1,60.6C26.11,60.82,26.12,61.05,26.12,61.28Z"/><path class="cls-3" d="M71.08,91.33a10,10,0,0,1-2.58-3.58A11.84,11.84,0,0,1,67.61,83V59c-.24-.16-.49-.31-.75-.46q.39-.21.75-.45V25.54a11.53,11.53,0,0,1,1.74-6.47,9.71,9.71,0,0,0-1.54-1.72A12.58,12.58,0,0,0,63.73,15a15.65,15.65,0,0,0-5.31-.85H46.59a1.24,1.24,0,0,0-1,.41,1.51,1.51,0,0,0-.34,1V60.41l3.13,32.3A1.52,1.52,0,0,1,48,93.86a1.66,1.66,0,0,1-1.39.55H50.4a3.73,3.73,0,0,0,3-1.12,4.23,4.23,0,0,0,1-2.9V62.3h3.95a3.68,3.68,0,0,1,3,1.13,4.52,4.52,0,0,1,.92,2.95v24a4.23,4.23,0,0,0,1,2.9,3.73,3.73,0,0,0,3,1.12H70A1.24,1.24,0,0,0,71,94a1.51,1.51,0,0,0,.34-1V91.55ZM62.23,50.61a4.46,4.46,0,0,1-.95,2.92,3.66,3.66,0,0,1-3,1.16H54.34V21.77h3.95a3.65,3.65,0,0,1,3,1.15,4.37,4.37,0,0,1,1,2.93Z"/><path class="cls-1" d="M48,93.86a1.66,1.66,0,0,1-1.39.55h0a1.24,1.24,0,0,1-1-.41,1.51,1.51,0,0,1-.34-1V60.41l3.13,32.3A1.52,1.52,0,0,1,48,93.86Z"/><path class="cls-4" d="M89.56,17.23a11.58,11.58,0,0,0-4-2.28,15.89,15.89,0,0,0-5.2-.8q-6,0-9.37,3a9.49,9.49,0,0,0-1.6,1.87A10.49,10.49,0,0,1,70.43,21a12.34,12.34,0,0,1,.91,4.83V50.61a9,9,0,0,1-1.19,4.89,8.54,8.54,0,0,1-2.54,2.61V59a8.64,8.64,0,0,1,2.54,2.57,8.75,8.75,0,0,1,1.19,4.79V91.55a11.94,11.94,0,0,0,3.75,2.06,16.09,16.09,0,0,0,5.23.8q6,0,9.37-3c.18-.16.35-.33.51-.5v-73C90,17.63,89.78,17.43,89.56,17.23ZM84.16,83a4.21,4.21,0,0,1-1,2.88,4.39,4.39,0,0,1-5.79,0A4.3,4.3,0,0,1,76.48,83V25.54a4.21,4.21,0,0,1,1-2.88,4.4,4.4,0,0,1,5.8,0,4.35,4.35,0,0,1,.92,2.88Z"/><path class="cls-5" d="M71.34,25.85V50.61a9,9,0,0,1-1.19,4.89,8.54,8.54,0,0,1-2.54,2.61V25.54a11.53,11.53,0,0,1,1.74-6.47A10.49,10.49,0,0,1,70.43,21,12.34,12.34,0,0,1,71.34,25.85Z"/><path class="cls-5" d="M71.34,66.38V91.55l-.26-.22a10,10,0,0,1-2.58-3.58A11.84,11.84,0,0,1,67.61,83V59a8.64,8.64,0,0,1,2.54,2.57A8.75,8.75,0,0,1,71.34,66.38Z"/><path class="cls-5" d="M116,14.56a1.27,1.27,0,0,0-1-.41h-3.81a4.22,4.22,0,0,0-2.86.95,3.19,3.19,0,0,0-1.09,2.52l.68,43.05q-.67-2.93-1.53-6.93t-1.77-8.47q-.92-4.46-1.8-9T101.15,28q-.75-3.8-1.23-6.63c-.31-1.88-.52-3.18-.61-3.91a3.5,3.5,0,0,0-1.19-2.41,4,4,0,0,0-2.75-.92H91.56a1.24,1.24,0,0,0-1,.41,1.51,1.51,0,0,0-.34,1v2.27a9.74,9.74,0,0,1,1.94,3,11.81,11.81,0,0,1,.9,4.73V83a10.86,10.86,0,0,1-2.84,7.84V93a1.51,1.51,0,0,0,.34,1,1.24,1.24,0,0,0,1,.41h3.81a3.6,3.6,0,0,0,3.94-4L98.63,50.2c.36,2.27.83,4.78,1.4,7.55s1.16,5.57,1.8,8.43,1.27,5.66,1.9,8.4,1.22,5.26,1.74,7.55,1,4.25,1.29,5.88a20.51,20.51,0,0,1,.51,3.27,3.64,3.64,0,0,0,1.16,2.28,4,4,0,0,0,2.72.85H115a1.27,1.27,0,0,0,1-.41,1.57,1.57,0,0,0,.34-1V15.58A1.57,1.57,0,0,0,116,14.56Z"/><path class="cls-3" d="M93,25.54V83a10.86,10.86,0,0,1-2.84,7.84v-73a9.74,9.74,0,0,1,1.94,3A11.81,11.81,0,0,1,93,25.54Z"/><path class="cls-4" d="M86.39,3.15h-.08A.32.32,0,0,1,86,2.92s-.07-.22-.23-.22h-.57V6.59a5.55,5.55,0,0,1-3.75,5.24V15a.33.33,0,0,1-.65,0V12a5.31,5.31,0,0,1-.8.11V15a.33.33,0,0,1-.65,0V12.11a5.76,5.76,0,0,1-.82-.11,5.24,5.24,0,0,1-1.11.12,5.54,5.54,0,0,1-5.18-3.57.32.32,0,0,1,.19-.41L80.79,5V2.21a2.2,2.2,0,0,1,4.4-.16h.57a.92.92,0,0,1,.86.71A.32.32,0,0,1,86.39,3.15Z"/><path class="cls-1" d="M31.82,104a.2.2,0,0,1,.15.06.18.18,0,0,1,.06.15v.34a.58.58,0,0,1-.14.42.47.47,0,0,1-.37.17H30.28v4.33h1.34a.2.2,0,0,1,.15.05.18.18,0,0,1,.06.15V110a.65.65,0,0,1-.14.43.49.49,0,0,1-.37.16h-1v4.19h1.24a.46.46,0,0,1,.37.16.59.59,0,0,1,.14.42v.35a.2.2,0,0,1-.06.15.25.25,0,0,1-.15,0H29.13a.21.21,0,0,1-.16-.06.25.25,0,0,1,0-.15V104.21a.25.25,0,0,1,0-.15.19.19,0,0,1,.16-.07Z"/><path class="cls-1" d="M39.75,108.16a.55.55,0,0,1-.44-.16.63.63,0,0,1-.15-.43v-2a.68.68,0,0,0-.14-.44.57.57,0,0,0-.44-.17.57.57,0,0,0-.45.17.68.68,0,0,0-.14.44A8.15,8.15,0,0,0,38.1,107a5.31,5.31,0,0,0,.28,1,5.69,5.69,0,0,0,.41.82l.46.73c.16.24.31.5.46.77a5.43,5.43,0,0,1,.41,1,7.61,7.61,0,0,1,.29,1.28,12.57,12.57,0,0,1,.1,1.74,1.81,1.81,0,0,1-.13.72,1.37,1.37,0,0,1-.4.55,1.74,1.74,0,0,1-.61.35,2.47,2.47,0,0,1-.79.12,2,2,0,0,1-1.43-.47,1.61,1.61,0,0,1-.51-1.27v-2.48a.2.2,0,0,1,0-.15.18.18,0,0,1,.15-.06h.56a.54.54,0,0,1,.44.16.63.63,0,0,1,.15.43v2.1a.63.63,0,0,0,.15.44.65.65,0,0,0,.88,0,.68.68,0,0,0,.14-.44,11.13,11.13,0,0,0-.1-1.65,7.16,7.16,0,0,0-.29-1.19,5,5,0,0,0-.41-.87c-.15-.24-.31-.48-.46-.7s-.31-.46-.46-.71a4.49,4.49,0,0,1-.41-.85,6.25,6.25,0,0,1-.29-1.17,10.61,10.61,0,0,1-.1-1.62,1.81,1.81,0,0,1,.13-.72,1.56,1.56,0,0,1,.4-.55,1.91,1.91,0,0,1,.61-.35,2.45,2.45,0,0,1,.8-.12,2,2,0,0,1,1.42.47,1.63,1.63,0,0,1,.51,1.27V108a.2.2,0,0,1,0,.15.18.18,0,0,1-.15.06Z"/><path class="cls-1" d="M48.54,104a.2.2,0,0,1,.15.06.18.18,0,0,1,.06.15v.34a.63.63,0,0,1-.14.42.47.47,0,0,1-.37.17h-.63v10.41a.34.34,0,0,1-.1.26.38.38,0,0,1-.26.11h-.63a.38.38,0,0,1-.26-.11.34.34,0,0,1-.1-.26V105.13h-.63a.47.47,0,0,1-.37-.17.58.58,0,0,1-.14-.42v-.34a.18.18,0,0,1,.06-.15.2.2,0,0,1,.15-.06Z"/><path class="cls-1" d="M57.23,114.33a1.61,1.61,0,0,1-.51,1.27,2,2,0,0,1-1.43.47,2.43,2.43,0,0,1-.79-.12,1.74,1.74,0,0,1-.61-.35,1.37,1.37,0,0,1-.4-.55,1.81,1.81,0,0,1-.13-.72V104.21a.2.2,0,0,1,0-.15.16.16,0,0,1,.15-.07h.56a.61.61,0,0,1,.43.15.47.47,0,0,1,.16.37v9.82a.68.68,0,0,0,.14.44.65.65,0,0,0,.88,0,.63.63,0,0,0,.15-.44v-9.82a.44.44,0,0,1,.16-.37.61.61,0,0,1,.43-.15H57a.16.16,0,0,1,.15.07.2.2,0,0,1,0,.15Z"/><path class="cls-1" d="M64.08,104a2.36,2.36,0,0,1,.78.13,1.72,1.72,0,0,1,.61.34,1.63,1.63,0,0,1,.39.55,1.88,1.88,0,0,1,.13.72v8.44a1.62,1.62,0,0,1-.5,1.27,2.05,2.05,0,0,1-1.43.47H62.32a.18.18,0,0,1-.15-.06.25.25,0,0,1-.05-.15V104.21a.25.25,0,0,1,.05-.15.16.16,0,0,1,.15-.07Zm0,10.79a.54.54,0,0,0,.44-.17.7.7,0,0,0,.14-.44v-8.44a.67.67,0,0,0-.13-.43.53.53,0,0,0-.45-.17h-.59v9.65Z"/><path class="cls-1" d="M70.88,104.51a.44.44,0,0,1,.16-.37.61.61,0,0,1,.43-.15H72a.16.16,0,0,1,.15.07.2.2,0,0,1,0,.15v11.33a.34.34,0,0,1-.1.26.36.36,0,0,1-.26.11h-.63a.34.34,0,0,1-.25-.11.35.35,0,0,1-.11-.26Z"/><path class="cls-1" d="M77.12,105.57a1.63,1.63,0,0,1,.51-1.27,2.05,2.05,0,0,1,1.43-.47,2.47,2.47,0,0,1,.79.12,2.08,2.08,0,0,1,.62.35,1.53,1.53,0,0,1,.39.55,1.81,1.81,0,0,1,.14.72v8.76a1.61,1.61,0,0,1-.51,1.27,2.05,2.05,0,0,1-1.43.47,2.49,2.49,0,0,1-.8-.12,1.74,1.74,0,0,1-.61-.35,1.45,1.45,0,0,1-.39-.55,1.81,1.81,0,0,1-.14-.72Zm2.52,0a.63.63,0,0,0-.14-.44.54.54,0,0,0-.44-.17.56.56,0,0,0-.44.17.63.63,0,0,0-.15.44v8.76a.68.68,0,0,0,.14.44.58.58,0,0,0,.45.17.57.57,0,0,0,.44-.17.68.68,0,0,0,.14-.44Z"/><path class="cls-1" d="M89,108.16a.57.57,0,0,1-.44-.16.67.67,0,0,1-.14-.43v-2a.63.63,0,0,0-.15-.44.56.56,0,0,0-.44-.17.54.54,0,0,0-.44.17.63.63,0,0,0-.14.44,8.25,8.25,0,0,0,.1,1.41,5.28,5.28,0,0,0,.29,1,4.82,4.82,0,0,0,.41.82c.15.24.3.49.46.73s.31.5.46.77a6.29,6.29,0,0,1,.41,1,7.67,7.67,0,0,1,.28,1.28,12.42,12.42,0,0,1,.11,1.74,1.81,1.81,0,0,1-.14.72,1.45,1.45,0,0,1-.39.55,1.79,1.79,0,0,1-.62.35,2.47,2.47,0,0,1-.79.12,2.05,2.05,0,0,1-1.43-.47,1.61,1.61,0,0,1-.51-1.27v-2.48a.25.25,0,0,1,.05-.15.2.2,0,0,1,.15-.06h.57a.57.57,0,0,1,.44.16.63.63,0,0,1,.15.43v2.1a.63.63,0,0,0,.14.44.57.57,0,0,0,.44.17.58.58,0,0,0,.45-.17.68.68,0,0,0,.14-.44,11,11,0,0,0-.11-1.65,6.29,6.29,0,0,0-.29-1.19,4.39,4.39,0,0,0-.41-.87c-.15-.24-.3-.48-.46-.7s-.3-.46-.45-.71a4,4,0,0,1-.41-.85,5.55,5.55,0,0,1-.29-1.17,10.47,10.47,0,0,1-.11-1.62,1.81,1.81,0,0,1,.14-.72,1.53,1.53,0,0,1,.39-.55A2,2,0,0,1,87,104a2.49,2.49,0,0,1,.8-.12,2.05,2.05,0,0,1,1.43.47,1.63,1.63,0,0,1,.51,1.27V108a.25.25,0,0,1-.05.15.19.19,0,0,1-.15.06Z"/><path class="cls-1" d="M2,8.53a.43.43,0,0,1,.11-.32.36.36,0,0,1,.31-.13H2.9a.16.16,0,0,1,.12,0,.21.21,0,0,1,0,.12V9.39a1.2,1.2,0,0,1-.38.95,1.53,1.53,0,0,1-1.07.35A1.89,1.89,0,0,1,1,10.6a1.2,1.2,0,0,1-.45-.27,1.08,1.08,0,0,1-.3-.4,1.33,1.33,0,0,1-.1-.54V2.82a1.23,1.23,0,0,1,.38-.95A1.49,1.49,0,0,1,1.6,1.52a1.78,1.78,0,0,1,.59.09,1.43,1.43,0,0,1,.47.26A1.22,1.22,0,0,1,3,2.28a1.33,1.33,0,0,1,.1.54V4.16a.2.2,0,0,1,0,.11.17.17,0,0,1-.12.05H2.48a.39.39,0,0,1-.33-.13A.48.48,0,0,1,2,3.87V2.82a.49.49,0,0,0-.11-.33.42.42,0,0,0-.33-.12.42.42,0,0,0-.33.12.49.49,0,0,0-.11.33V9.39a.48.48,0,0,0,.11.32.39.39,0,0,0,.33.13.39.39,0,0,0,.33-.13A.48.48,0,0,0,2,9.39Z"/><path class="cls-1" d="M6.26,2.82a1.23,1.23,0,0,1,.38-.95,1.5,1.5,0,0,1,1.07-.35,1.89,1.89,0,0,1,.6.09,1.38,1.38,0,0,1,.46.26,1.09,1.09,0,0,1,.29.41,1.33,1.33,0,0,1,.11.54V9.39a1.21,1.21,0,0,1-.39.95,1.53,1.53,0,0,1-1.07.35,1.78,1.78,0,0,1-.59-.09,1.24,1.24,0,0,1-.46-.27,1.08,1.08,0,0,1-.3-.4,1.33,1.33,0,0,1-.1-.54Zm1.89,0a.48.48,0,0,0-.1-.33.45.45,0,0,0-.34-.12.45.45,0,0,0-.33.12.49.49,0,0,0-.11.33V9.39a.48.48,0,0,0,.11.32.48.48,0,0,0,.66,0,.48.48,0,0,0,.11-.32Z"/><path class="cls-1" d="M13,10.57a.17.17,0,0,1-.12-.05.2.2,0,0,1,0-.11V1.8a.21.21,0,0,1,0-.12.16.16,0,0,1,.12,0h.42a.47.47,0,0,1,.32.1.38.38,0,0,1,.12.28v7.7h.93a.35.35,0,0,1,.28.12.48.48,0,0,1,.11.32v.25a.17.17,0,0,1-.05.12.21.21,0,0,1-.11,0Z"/><path class="cls-1" d="M18.61,2.82A1.2,1.2,0,0,1,19,1.87a1.49,1.49,0,0,1,1.07-.35,1.83,1.83,0,0,1,.59.09,1.29,1.29,0,0,1,.46.26,1.12,1.12,0,0,1,.3.41,1.33,1.33,0,0,1,.1.54V9.39a1.23,1.23,0,0,1-.38.95,1.55,1.55,0,0,1-1.07.35,1.89,1.89,0,0,1-.6-.09,1.24,1.24,0,0,1-.46-.27,1.06,1.06,0,0,1-.29-.4,1.33,1.33,0,0,1-.1-.54Zm1.89,0a.49.49,0,0,0-.11-.33.51.51,0,0,0-.66,0,.49.49,0,0,0-.11.33V9.39a.43.43,0,0,0,.11.32.39.39,0,0,0,.33.13.42.42,0,0,0,.33-.13.48.48,0,0,0,.11-.32Z"/><path class="cls-1" d="M26.64,1.64a1.83,1.83,0,0,1,.59.09,1.4,1.4,0,0,1,.45.26A1.06,1.06,0,0,1,28,2.4a1.33,1.33,0,0,1,.11.54V5.69a1,1,0,0,1-.14.55,1,1,0,0,1-.36.34.91.91,0,0,1,.36.34.92.92,0,0,1,.14.53v3a.21.21,0,0,1,0,.11.14.14,0,0,1-.11.05H27.5a.45.45,0,0,1-.33-.13.48.48,0,0,1-.11-.32V7.45a.48.48,0,0,0-.1-.33A.43.43,0,0,0,26.62,7h-.43v3.13a.48.48,0,0,1-.11.32.45.45,0,0,1-.33.13h-.43a.14.14,0,0,1-.11-.05.15.15,0,0,1,0-.11V1.8a.16.16,0,0,1,0-.12.14.14,0,0,1,.11,0Zm-.45.85V6.15h.43A.43.43,0,0,0,27,6a.52.52,0,0,0,.1-.33V2.94A.47.47,0,0,0,27,2.61a.42.42,0,0,0-.33-.12Z"/><path class="cls-1" d="M33.61,1.64a.15.15,0,0,1,.11,0,.13.13,0,0,1,.05.11v.26a.5.5,0,0,1-.11.32.35.35,0,0,1-.28.12h-.93V5.73h1a.15.15,0,0,1,.11,0,.12.12,0,0,1,0,.11v.26a.47.47,0,0,1-.1.32.36.36,0,0,1-.28.12h-.78V9.72h.93a.35.35,0,0,1,.28.12.48.48,0,0,1,.11.32v.25a.17.17,0,0,1-.05.12.21.21,0,0,1-.11,0h-2a.17.17,0,0,1-.12-.05.2.2,0,0,1,0-.11V1.8a.21.21,0,0,1,0-.12.16.16,0,0,1,.12,0Z"/><path class="cls-1" d="M39.55,4.76a.42.42,0,0,1-.33-.12.43.43,0,0,1-.11-.32V2.82A.49.49,0,0,0,39,2.49a.45.45,0,0,0-.33-.12.45.45,0,0,0-.34.12.48.48,0,0,0-.1.33,6.45,6.45,0,0,0,.08,1.06,3.66,3.66,0,0,0,.21.78,4,4,0,0,0,.31.62l.34.54c.12.18.24.38.35.58a5.54,5.54,0,0,1,.31.72,5.31,5.31,0,0,1,.21,1,9.78,9.78,0,0,1,.08,1.31,1.33,1.33,0,0,1-.1.54,1.08,1.08,0,0,1-.3.4,1.24,1.24,0,0,1-.46.27,1.87,1.87,0,0,1-.59.09,1.53,1.53,0,0,1-1.07-.35,1.2,1.2,0,0,1-.38-.95V7.52a.2.2,0,0,1,0-.11.16.16,0,0,1,.12,0h.42a.42.42,0,0,1,.33.12.48.48,0,0,1,.11.32V9.39a.48.48,0,0,0,.11.32.48.48,0,0,0,.66,0,.48.48,0,0,0,.11-.32A8.84,8.84,0,0,0,39,8.14a5.37,5.37,0,0,0-.22-.88,3.59,3.59,0,0,0-.3-.65c-.12-.19-.23-.37-.35-.53s-.23-.35-.34-.53a3.18,3.18,0,0,1-.31-.64A5.5,5.5,0,0,1,37.29,4a8.54,8.54,0,0,1-.07-1.22,1.33,1.33,0,0,1,.1-.54,1.09,1.09,0,0,1,.29-.41,1.38,1.38,0,0,1,.46-.26,1.89,1.89,0,0,1,.6-.09,1.5,1.5,0,0,1,1.07.35,1.23,1.23,0,0,1,.38.95V4.6a.16.16,0,0,1,0,.12.12.12,0,0,1-.11,0Z"/><path class="cls-1" d="M50.67,1.64a1.87,1.87,0,0,1,.59.09,1.43,1.43,0,0,1,.45.26A1.09,1.09,0,0,1,52,2.4a1.33,1.33,0,0,1,.1.54V9.26a1.21,1.21,0,0,1-.38,1,1.53,1.53,0,0,1-1.07.35h-1.3a.13.13,0,0,1-.11-.05.15.15,0,0,1,0-.11V1.8a.16.16,0,0,1,0-.12.12.12,0,0,1,.11,0Zm0,8.08A.39.39,0,0,0,51,9.59a.5.5,0,0,0,.11-.33V2.94a.59.59,0,0,0-.1-.33.43.43,0,0,0-.34-.12h-.44V9.72Z"/><path class="cls-1" d="M57.93,1.64a.16.16,0,0,1,.12,0,.12.12,0,0,1,0,.11v.26a.49.49,0,0,1-.1.32.36.36,0,0,1-.28.12h-.93V5.73h1a.16.16,0,0,1,.12,0,.12.12,0,0,1,0,.11v.26a.47.47,0,0,1-.1.32.36.36,0,0,1-.28.12h-.78V9.72h.93a.36.36,0,0,1,.28.12.47.47,0,0,1,.1.32v.25a.16.16,0,0,1,0,.12.21.21,0,0,1-.12,0h-2a.15.15,0,0,1-.12-.05.21.21,0,0,1,0-.11V1.8a.21.21,0,0,1,0-.12.15.15,0,0,1,.12,0Z"/></g></g></svg>