<?xml version="1.0" encoding="utf-8"?>
<!-- Generator: Adobe Illustrator 23.1.0, SVG Export Plug-In . SVG Version: 6.00 Build 0)  -->
<svg version="1.1" xmlns="http://www.w3.org/2000/svg" xmlns:xlink="http://www.w3.org/1999/xlink" x="0px" y="0px"
	 viewBox="0 0 463 406" style="enable-background:new 0 0 463 406;" xml:space="preserve">
<style type="text/css">
	.st0{fill:#15455C;}
	.st1{fill:#17B28C;}
	.st2{fill:#F0B817;}
	.st3{fill:#DE5C19;}
	.st4{fill:#DE2C1C;}
	.st5{fill:#FFFFFF;}
</style>
<g id="Capa_1">
	<g>
		
			<image style="overflow:visible;opacity:0.69;" width="463" height="71" xlink:href="55DB954018E3D13C.png"  transform="matrix(1 0 0 1 7 252)">
		</image>
		<g>
			<g>
				<g>
					<g id="Capa_1-2_9_">
						
							<image style="display:none;overflow:visible;opacity:0.9;enable-background:new    ;" width="463" height="406" xlink:href="55DB954018E3D13D.png"  transform="matrix(1 0 0 1 0 -41.42)">
						</image>
						<rect x="30.4" y="275.3" class="st0" width="80.5" height="10.2"/>
						<rect x="110.9" y="275.3" class="st1" width="80.5" height="10.2"/>
						<rect x="191.4" y="275.3" class="st2" width="80.5" height="10.2"/>
						<rect x="271.9" y="275.3" class="st3" width="80.5" height="10.2"/>
						<rect x="352.4" y="275.3" class="st4" width="80.5" height="10.2"/>
					</g>
				</g>
			</g>
		</g>
	</g>
</g>
<g id="Capa_2">
	
		<image style="overflow:visible;opacity:0.75;" width="442" height="289" xlink:href="55DB954018E3D13B.png"  transform="matrix(1 0 0 1 17 73)">
	</image>
	<g>
		<g>
			<path class="st5" d="M43,94.2v35.9h3.2c0.9,0.1,1.8-0.3,2.4-0.9c0.5-0.7,0.8-1.5,0.8-2.4V97.5c0-0.9-0.2-1.7-0.8-2.4
				c-0.6-0.7-1.5-1-2.5-0.9L43,94.2z M46.2,88c1.5,0,2.9,0.2,4.3,0.7c1.2,0.4,2.4,1.1,3.3,1.9c0.9,0.8,1.6,1.9,2.1,3
				c0.5,1.3,0.8,2.6,0.8,4v29.3c0.1,2.6-0.9,5.2-2.8,7c-1.9,1.7-4.5,2.5-7.8,2.5H43v25.7c0,0.9-0.3,1.7-0.8,2.4
				c-0.6,0.6-1.5,1-2.4,0.9h-3.1c-0.3,0-0.6-0.1-0.8-0.3c-0.2-0.2-0.3-0.5-0.3-0.8v-75c0-0.3,0.1-0.6,0.3-0.8
				c0.2-0.2,0.5-0.4,0.8-0.3L46.2,88z"/>
			<path class="st5" d="M88.9,145.8h4.9l-2.4-41.3L88.9,145.8z M94.5,88c0.3,0,0.6,0.1,0.8,0.3c0.2,0.2,0.3,0.5,0.3,0.8l6.6,74.8
				c0,0.3-0.1,0.7-0.3,0.9c-0.3,0.3-0.7,0.5-1.1,0.4h-2.7c-0.8,0-1.7-0.3-2.3-0.8c-0.6-0.5-1-1.2-1-2L94.2,152h-5.6L88,162.6
				c-0.1,0.8-0.4,1.5-1,2c-0.6,0.5-1.5,0.8-2.3,0.8H82c-0.4,0-0.9-0.1-1.1-0.4c-0.2-0.3-0.3-0.6-0.3-0.9l6.6-74.8
				c0-0.3,0.1-0.6,0.3-0.8c0.2-0.2,0.5-0.3,0.8-0.3L94.5,88z"/>
			<path class="st5" d="M133.4,94.2V127h3.2c0.9,0.1,1.8-0.3,2.4-0.9c0.5-0.7,0.8-1.5,0.8-2.4V97.5c0-0.9-0.3-1.7-0.8-2.4
				c-0.6-0.7-1.5-1-2.4-0.9L133.4,94.2z M136.7,88c1.5,0,2.9,0.2,4.3,0.7c1.2,0.4,2.3,1.1,3.3,1.9c0.9,0.8,1.7,1.9,2.1,3
				c0.5,1.2,0.8,2.6,0.8,3.9v26.2c0,1.4-0.3,2.8-1,4c-0.7,1-1.6,1.9-2.7,2.5c1.1,0.6,2,1.4,2.7,2.5c0.7,1.2,1,2.5,1,3.9v27.7
				c0,0.3-0.1,0.6-0.3,0.8c-0.2,0.2-0.5,0.4-0.8,0.3H143c-0.9,0.1-1.8-0.3-2.4-0.9c-0.6-0.7-0.8-1.5-0.8-2.4v-25.6
				c0-0.9-0.2-1.7-0.8-2.4c-0.6-0.7-1.5-1-2.5-0.9h-3.2v28.9c0,0.9-0.3,1.7-0.8,2.4c-0.6,0.6-1.5,1-2.4,0.9h-3.1
				c-0.3,0-0.6-0.1-0.8-0.3c-0.2-0.2-0.3-0.5-0.3-0.8v-75c0-0.3,0.1-0.6,0.3-0.8c0.2-0.2,0.5-0.4,0.8-0.3L136.7,88z"/>
			<path class="st5" d="M179.3,145.8h4.9l-2.4-41.3L179.3,145.8z M184.9,88c0.3,0,0.6,0.1,0.8,0.3c0.2,0.2,0.3,0.5,0.3,0.8l6.6,74.8
				c0,0.3-0.1,0.7-0.3,0.9c-0.3,0.3-0.7,0.5-1.1,0.4h-2.7c-0.8,0-1.7-0.3-2.3-0.8c-0.6-0.5-1-1.2-1-2l-0.6-10.6H179l-0.6,10.6
				c-0.1,0.8-0.4,1.5-1,2c-0.6,0.5-1.5,0.8-2.3,0.8h-2.7c-0.4,0-0.8-0.1-1.1-0.4c-0.2-0.3-0.3-0.6-0.3-0.9l6.6-74.8
				c0-0.3,0.1-0.6,0.3-0.8c0.2-0.2,0.5-0.3,0.8-0.3H184.9z"/>
			<path class="st5" d="M260.7,165.3c-0.3,0-0.6-0.1-0.8-0.3c-0.2-0.2-0.3-0.5-0.3-0.8l-6.6-74.8c0-0.3,0.1-0.7,0.3-0.9
				c0.3-0.3,0.7-0.5,1.1-0.4h2.7c0.8,0,1.7,0.3,2.3,0.8c0.6,0.5,1,1.2,1,2l3.4,58l3.4-58c0-0.8,0.4-1.5,1-2c0.6-0.5,1.5-0.8,2.3-0.8
				h2.7c0.4,0,0.8,0.1,1.1,0.4c0.2,0.3,0.3,0.6,0.3,0.9l-6.6,74.8c0,0.3-0.1,0.6-0.3,0.8c-0.2,0.2-0.5,0.3-0.8,0.3H260.7z"/>
			<path class="st5" d="M298.4,90.8c0-0.8,0.3-1.5,0.9-2c0.6-0.5,1.5-0.8,2.3-0.8h3.1c0.3,0,0.6,0.1,0.8,0.3
				c0.2,0.2,0.3,0.5,0.3,0.8v74.2c0,1.1-0.9,2-2,2h-3.4c-1.1,0-2-0.9-2-2L298.4,90.8z"/>
			<path class="st5" d="M337.2,165.3c-0.3,0-0.6-0.1-0.8-0.3c-0.2-0.2-0.3-0.5-0.3-0.8l-6.6-74.8c0-0.3,0.1-0.7,0.3-0.9
				c0.3-0.3,0.7-0.5,1.1-0.4h2.7c0.8,0,1.7,0.3,2.3,0.8c0.6,0.5,0.9,1.2,1,2l3.4,58l3.4-58c0-0.8,0.4-1.5,1-2
				c0.6-0.5,1.5-0.8,2.3-0.8h2.7c0.4,0,0.8,0.1,1.1,0.4c0.2,0.3,0.3,0.6,0.3,0.9l-6.6,74.8c0,0.3-0.2,0.5-0.3,0.8
				c-0.2,0.2-0.5,0.3-0.8,0.3H337.2z"/>
			<path class="st5" d="M375,90.8c0-0.8,0.3-1.5,0.9-2c0.6-0.5,1.5-0.8,2.3-0.8h3.1c0.3,0,0.6,0.1,0.8,0.3c0.2,0.2,0.3,0.5,0.3,0.8
				v74.2c0,0.5-0.2,1-0.6,1.4c-0.4,0.4-0.9,0.6-1.4,0.6H377c-0.5,0-1-0.2-1.4-0.6c-0.4-0.4-0.6-0.9-0.6-1.4L375,90.8z"/>
			<path class="st5" d="M414.8,94.2V127h3.2c0.9,0.1,1.8-0.3,2.4-0.9c0.5-0.7,0.8-1.5,0.8-2.4V97.5c0-0.9-0.3-1.7-0.8-2.4
				c-0.6-0.7-1.5-1-2.4-0.9L414.8,94.2z M418.2,88c1.5,0,2.9,0.2,4.3,0.7c1.2,0.4,2.3,1.1,3.3,1.9c0.9,0.8,1.7,1.9,2.1,3
				c0.5,1.2,0.8,2.6,0.8,3.9v26.2c0,1.4-0.3,2.8-1,4c-0.7,1-1.6,1.9-2.7,2.5c1.1,0.6,2,1.4,2.7,2.5c0.7,1.2,1,2.5,1,3.9v27.7
				c0,0.3-0.1,0.6-0.3,0.8c-0.2,0.2-0.5,0.4-0.8,0.3h-3.1c-0.9,0.1-1.8-0.3-2.4-0.9c-0.6-0.7-0.8-1.5-0.8-2.4v-25.6
				c0-0.9-0.2-1.7-0.8-2.4c-0.6-0.7-1.5-1-2.5-0.9h-3.2v28.9c0,0.9-0.3,1.7-0.8,2.4c-0.6,0.6-1.5,1-2.4,0.9h-3.1
				c-0.3,0-0.6-0.1-0.8-0.3c-0.2-0.2-0.3-0.5-0.3-0.8v-75c0-0.3,0.1-0.6,0.3-0.8c0.2-0.2,0.5-0.4,0.8-0.3L418.2,88z"/>
			<path class="st5" d="M51,193.8c0-0.9-0.2-1.7-0.8-2.4c-0.6-0.7-1.5-1-2.4-0.9c-0.9-0.1-1.8,0.3-2.4,0.9c-0.6,0.7-0.8,1.5-0.8,2.4
				v60.1c0,0.9,0.2,1.7,0.8,2.4c1.4,1.2,3.5,1.2,4.8,0c0.6-0.7,0.8-1.5,0.8-2.4V193.8z M37.2,193.8c-0.1-2.6,0.9-5.2,2.8-7
				c1.9-1.7,4.5-2.5,7.8-2.5c1.5,0,2.9,0.2,4.3,0.7c1.2,0.4,2.4,1.1,3.4,1.9c0.9,0.8,1.7,1.8,2.2,3c0.5,1.3,0.8,2.6,0.8,3.9v60.1
				c0.1,2.6-0.9,5.2-2.8,6.9c-1.9,1.7-4.5,2.5-7.8,2.5c-1.5,0-3-0.2-4.4-0.7c-1.3-0.4-2.4-1-3.4-1.9c-0.9-0.8-1.7-1.8-2.2-3
				c-0.5-1.2-0.8-2.6-0.8-3.9L37.2,193.8z"/>
			<path class="st5" d="M121.3,187.9c0-0.8,0.3-1.5,0.9-2c0.6-0.5,1.5-0.8,2.3-0.8h3.1c0.3,0,0.6,0.1,0.8,0.3
				c0.2,0.2,0.3,0.5,0.3,0.8v74.2c0,0.5-0.2,1-0.6,1.4c-0.4,0.4-0.9,0.6-1.4,0.6h-3.4c-0.5,0-1-0.2-1.4-0.6
				c-0.4-0.4-0.6-0.9-0.6-1.4L121.3,187.9z"/>
			<path class="st5" d="M173.9,185.1c0.3,0,0.6,0.1,0.8,0.3c0.2,0.2,0.3,0.5,0.3,0.8v75c0,0.3-0.1,0.6-0.3,0.8
				c-0.2,0.2-0.5,0.4-0.8,0.3h-3.1c-0.8,0.1-1.6-0.2-2.2-0.7c-0.5-0.5-0.9-1.1-0.9-1.9c-0.1-1-0.2-2.1-0.4-3.1
				c-0.3-1.6-0.6-3.6-1.1-5.9c-0.4-2.3-0.9-4.8-1.4-7.6c-0.5-2.8-1-5.5-1.5-8.3s-1-5.4-1.5-8s-0.8-4.7-1.1-6.6l0.6,38.7
				c0.1,0.9-0.2,1.7-0.8,2.3c-0.6,0.6-1.5,1-2.4,0.9h-3.1c-0.3,0-0.6-0.1-0.8-0.3c-0.2-0.2-0.3-0.5-0.3-0.8v-75
				c0-0.3,0.1-0.6,0.3-0.8c0.2-0.2,0.5-0.4,0.8-0.3h3.1c0.8,0,1.6,0.2,2.2,0.8c0.6,0.5,1,1.2,1,2c0.1,0.6,0.2,1.8,0.5,3.6
				s0.6,4,1,6.5s0.9,5.3,1.3,8.2s1,5.9,1.5,8.7s1,5.5,1.4,8s0.9,4.5,1.2,6.1l-0.6-41c0-0.8,0.3-1.5,0.9-2c0.6-0.5,1.5-0.8,2.3-0.8
				L173.9,185.1z"/>
			<path class="st5" d="M207,262.5c-0.3,0-0.6-0.1-0.8-0.3c-0.2-0.2-0.3-0.5-0.3-0.8l-6.6-74.8c0-0.3,0.1-0.7,0.3-0.9
				c0.3-0.3,0.7-0.5,1.1-0.4h2.7c0.8,0,1.7,0.3,2.3,0.8c0.6,0.5,0.9,1.2,1,1.9l3.4,58.1l3.4-58.1c0.1-0.8,0.4-1.5,1-1.9
				c0.6-0.6,1.5-0.8,2.3-0.8h2.7c0.4,0,0.8,0.1,1.1,0.4c0.2,0.3,0.3,0.6,0.3,0.9l-6.6,74.8c0,0.3-0.1,0.6-0.3,0.8
				c-0.2,0.2-0.5,0.3-0.8,0.3H207z"/>
			<path class="st5" d="M260.6,185.1c0.3,0,0.6,0.1,0.8,0.3c0.2,0.2,0.4,0.5,0.3,0.8v1.9c0,0.8-0.2,1.7-0.8,2.3
				c-0.5,0.6-1.2,0.9-2,0.9h-6.8v29.8h7.3c0.3,0,0.6,0.1,0.8,0.3c0.2,0.2,0.4,0.5,0.3,0.8v1.9c0,0.8-0.2,1.7-0.8,2.3
				c-0.5,0.6-1.3,0.9-2,0.9h-5.7v29h6.8c0.8,0,1.5,0.3,2,0.9c0.5,0.6,0.8,1.5,0.8,2.3v1.9c0,0.3-0.1,0.6-0.3,0.8
				c-0.2,0.2-0.5,0.3-0.8,0.3h-14.8c-0.3,0-0.6-0.1-0.8-0.3c-0.2-0.2-0.3-0.5-0.3-0.8v-75c0-0.3,0.1-0.6,0.3-0.8
				c0.2-0.2,0.5-0.4,0.8-0.3L260.6,185.1z"/>
			<path class="st5" d="M292.7,191.3v32.8h3.2c0.9,0.1,1.8-0.3,2.4-0.9c0.5-0.7,0.8-1.5,0.8-2.4v-26.2c0-0.9-0.3-1.7-0.8-2.4
				c-0.6-0.7-1.5-1-2.4-0.9H292.7z M296,185.1c1.5,0,2.9,0.2,4.3,0.7c1.2,0.4,2.3,1.1,3.3,1.9c0.9,0.8,1.7,1.8,2.1,3
				c0.5,1.2,0.8,2.6,0.8,3.9v26.2c0,1.4-0.3,2.8-1,4c-0.7,1-1.6,1.9-2.7,2.5c1.1,0.6,2,1.4,2.7,2.5c0.7,1.2,1,2.5,1,3.9v27.7
				c0,0.3-0.1,0.6-0.3,0.8c-0.2,0.2-0.5,0.4-0.8,0.3h-3.1c-0.9,0.1-1.8-0.3-2.4-0.9c-0.6-0.7-0.8-1.5-0.8-2.4v-25.6
				c0-0.9-0.2-1.7-0.8-2.4c-0.6-0.7-1.5-1-2.5-0.9h-3.2v28.9c0,0.9-0.3,1.7-0.8,2.3c-0.6,0.6-1.5,1-2.4,0.9h-3.1
				c-0.3,0-0.6-0.1-0.8-0.3c-0.2-0.2-0.3-0.5-0.3-0.8v-75c0-0.3,0.1-0.6,0.3-0.8c0.2-0.2,0.5-0.4,0.8-0.3L296,185.1z"/>
			<path class="st5" d="M348.7,185.1c0.3,0,0.6,0.1,0.8,0.3c0.2,0.2,0.4,0.5,0.3,0.8v1.9c0,0.8-0.2,1.7-0.8,2.3
				c-0.5,0.6-1.2,0.9-2,0.9h-3.4v69.1c0,0.5-0.2,1-0.6,1.4c-0.4,0.4-0.9,0.6-1.4,0.6h-3.4c-0.5,0-1-0.2-1.4-0.6
				c-0.4-0.4-0.6-0.9-0.6-1.4v-69.1h-3.4c-0.8,0-1.5-0.3-2-0.9c-0.5-0.6-0.8-1.5-0.8-2.3v-1.9c0-0.3,0.1-0.6,0.3-0.8
				c0.2-0.2,0.5-0.3,0.8-0.3L348.7,185.1z"/>
			<path class="st5" d="M373.4,187.9c0-0.8,0.3-1.5,0.9-2c0.6-0.5,1.5-0.8,2.3-0.8h3.1c0.3,0,0.6,0.1,0.8,0.3
				c0.2,0.2,0.3,0.5,0.3,0.8v74.2c0,0.5-0.2,1-0.6,1.4c-0.4,0.4-0.9,0.6-1.4,0.6h-3.4c-0.5,0-1-0.2-1.4-0.6
				c-0.4-0.4-0.6-0.9-0.6-1.4V187.9z"/>
			<path class="st5" d="M413.3,191.3v32.8h3.2c0.9,0.1,1.8-0.3,2.4-0.9c0.5-0.7,0.8-1.5,0.8-2.4v-26.2c0-0.9-0.2-1.7-0.8-2.4
				c-0.6-0.7-1.5-1-2.4-0.9H413.3z M416.6,185.1c1.5,0,2.9,0.2,4.3,0.7c1.2,0.4,2.3,1.1,3.3,1.9c0.9,0.8,1.7,1.9,2.1,3
				c0.5,1.2,0.8,2.6,0.7,3.9v26.2c0,1.4-0.3,2.8-1,4c-0.7,1-1.6,1.9-2.7,2.5c1.1,0.6,2,1.4,2.7,2.5c0.7,1.2,1,2.5,1,3.9v27.7
				c0,0.3-0.1,0.6-0.3,0.8c-0.2,0.2-0.5,0.4-0.8,0.3h-3.1c-0.9,0.1-1.8-0.3-2.4-0.9c-0.6-0.7-0.8-1.5-0.8-2.4v-25.6
				c0-0.9-0.2-1.7-0.7-2.4c-0.6-0.7-1.5-1-2.5-0.9h-3.2v28.9c0,0.9-0.3,1.7-0.8,2.3c-0.6,0.7-1.5,1-2.4,0.9H407
				c-0.3,0-0.6-0.1-0.8-0.3c-0.2-0.2-0.3-0.5-0.3-0.8v-75c0-0.3,0.1-0.6,0.3-0.8c0.2-0.2,0.5-0.4,0.8-0.3L416.6,185.1z"/>
			<polygon class="st5" points="31.2,299.1 31.2,333.5 44.8,333.5 44.8,331.4 33.5,331.4 33.5,317.1 42.9,317.1 42.9,315 33.5,315 
				33.5,301.2 44.8,301.2 44.8,299.1 			"/>
			<polygon class="st5" points="63.2,299.1 63.2,328.1 52.9,299.1 50,299.1 50,333.5 52,333.5 52,302.8 62.8,333.5 65.3,333.5 
				65.3,299.1 			"/>
			<path class="st5" d="M83.1,330c1.9,2.2,5.3,2.4,7.4,0.4c0.2-0.1,0.3-0.3,0.4-0.4c0.9-1.4,1.3-3.1,1.2-4.8v-26.1h2.1v26
				c0.1,2.2-0.5,4.5-1.8,6.3c-1.3,1.7-3.4,2.6-5.6,2.4c-2.1,0.2-4.2-0.7-5.6-2.4c-1.3-1.8-1.9-4.1-1.8-6.3v-26h2.3v26.1
				C81.8,326.9,82.2,328.5,83.1,330"/>
			<polygon class="st5" points="113,299.1 113,328.1 102.7,299.1 99.7,299.1 99.7,333.5 101.8,333.5 101.8,302.8 112.5,333.5 
				115.1,333.5 115.1,299.1 			"/>
			<polygon class="st5" points="142.8,299.1 142.8,328.1 132.4,299.1 129.5,299.1 129.5,333.5 131.6,333.5 131.6,302.8 142.3,333.5 
				144.8,333.5 144.8,299.1 			"/>
			<path class="st5" d="M153.6,330c1.9,2.2,5.3,2.4,7.4,0.4c0.2-0.1,0.3-0.3,0.4-0.4c0.9-1.4,1.3-3.1,1.2-4.8v-26.1h2.1v26
				c0.1,2.2-0.5,4.5-1.8,6.3c-2.9,3.1-7.8,3.2-10.8,0.3c-0.1-0.1-0.2-0.2-0.3-0.3c-1.3-1.8-1.9-4.1-1.8-6.3v-26h2.3v26.1
				C152.3,326.9,152.7,328.5,153.6,330"/>
			<polygon class="st5" points="170.2,299.1 170.2,333.5 183.7,333.5 183.7,331.4 172.4,331.4 172.4,317.1 181.8,317.1 181.8,315 
				172.4,315 172.4,301.2 183.7,301.2 183.7,299.1 			"/>
			<polygon class="st5" points="204.7,299.1 197.7,330.9 190.7,299.1 188.4,299.1 196,333.5 199.3,333.5 206.8,299.1 			"/>
			<path class="st5" d="M215.1,330c1,1.2,2.5,1.9,4,1.8c1.6,0.1,3.1-0.5,4.1-1.8c0.9-1.4,1.4-3.1,1.3-4.7v-17.9
				c0.1-1.7-0.4-3.3-1.3-4.7c-1-1.2-2.5-1.9-4.1-1.8c-1.5-0.1-3,0.5-4,1.8c-0.9,1.4-1.4,3.1-1.3,4.7v17.9
				C213.7,326.9,214.1,328.6,215.1,330 M213.4,301.2c1.4-1.6,3.5-2.5,5.6-2.4c2.2-0.2,4.3,0.7,5.7,2.4c1.3,1.8,2,4.1,1.9,6.3v17.6
				c0.1,2.3-0.5,4.5-1.9,6.3c-1.4,1.6-3.6,2.5-5.7,2.4c-2.1,0.2-4.2-0.7-5.6-2.4c-1.3-1.8-2-4.1-1.9-6.3v-17.6
				C211.4,305.2,212.1,303,213.4,301.2"/>
			<polygon class="st5" points="256.7,299.1 249.8,330.9 242.8,299.1 240.5,299.1 248,333.5 251.4,333.5 258.9,299.1 			"/>
			<path class="st5" d="M271.1,301.6l5.1,22.3h-10L271.1,301.6z M269.6,299l-7.5,34.5h2.1l1.7-7.6h10.7l1.7,7.6h2.3l-7.7-34.5H269.6
				z"/>
			<polygon class="st5" points="285.5,299.1 285.5,333.5 298.5,333.5 298.5,331.4 287.7,331.4 287.7,299.1 			"/>
			<path class="st5" d="M314.3,315.9c0.9-0.9,1.4-2.5,1.4-4.5v-4c0.1-1.6-0.3-3.2-1.2-4.6c-1-1.1-2.4-1.7-3.9-1.6h-4.9v16.1h4.3
				C311.9,317.3,313.4,316.8,314.3,315.9 M316.1,301.3c1.3,1.8,1.9,4,1.8,6.1v3.7c0,2.8-0.6,4.8-2,6.1c-1.3,1.3-3.3,2-6,2h-4.3v14.2
				h-2.3v-34.4h7.1C313.1,299.1,315,299.8,316.1,301.3"/>
			<path class="st5" d="M330.8,301.6l5.1,22.3h-10L330.8,301.6z M329.3,299l-7.5,34.5h2.1l1.7-7.6h10.7l1.7,7.6h2.3l-7.7-34.5H329.3
				z"/>
			<path class="st5" d="M355.9,314.8c1-0.8,1.6-2.3,1.6-4.5V307c0.1-1.6-0.3-3.1-1.2-4.4c-1-1.1-2.5-1.6-3.9-1.5h-4.9V316h3.6
				C352.7,316.2,354.4,315.7,355.9,314.8 M359.7,306.8v3c0.1,1.7-0.3,3.4-1.2,4.8c-0.9,1.2-2.3,2.1-3.8,2.3c3.3,0.7,5,3.1,5,7v5.4
				c-0.1,1.4,0.2,2.9,0.8,4.1h-2.4c-0.3-0.5-0.5-1.1-0.6-1.7c-0.1-0.8-0.2-1.6-0.1-2.4v-5.4c0-2.2-0.5-3.7-1.6-4.5
				c-1.4-1-3.1-1.4-4.8-1.3h-3.6v15.4h-2.3v-34.4h7.2C357.2,299.1,359.7,301.7,359.7,306.8"/>
			<path class="st5" d="M374.2,301.6l5.1,22.3h-10L374.2,301.6z M372.6,299l-7.5,34.5h2.1l1.7-7.6h10.7l1.7,7.6h2.3l-7.7-34.5H372.6
				z"/>
			<path class="st5" d="M388.5,333.5h2.3v-34.4h-2.3V333.5z M391.2,292.4l-3.5,4.7h1.7l4.1-4.7H391.2z"/>
			<path class="st5" d="M408.9,301.1c1.3,1.8,1.9,4,1.8,6.3v0.7h-2.2v-0.9c0.1-1.6-0.3-3.3-1.2-4.7c-2-2.1-5.3-2.3-7.4-0.4
				c-0.1,0.1-0.2,0.2-0.4,0.4c-0.9,1.4-1.3,3-1.2,4.6c0,1.2,0.2,2.3,0.8,3.3c0.5,0.9,1.2,1.8,1.9,2.5c1,0.9,2.1,1.7,3.2,2.5
				c1.4,1,2.5,1.9,3.4,2.7c0.9,0.8,1.7,1.8,2.2,2.9c0.6,1.2,0.9,2.6,0.9,4c0.1,2.2-0.5,4.4-1.8,6.3c-1.2,1.6-3.1,2.3-5.6,2.3
				s-4.4-0.8-5.6-2.3c-1.3-1.8-1.9-4-1.8-6.3v-1.8h2.1v1.9c-0.1,1.6,0.4,3.3,1.3,4.6c2.1,2.2,5.5,2.3,7.7,0.2
				c0.1-0.1,0.1-0.1,0.2-0.2c0.9-1.4,1.4-3,1.3-4.6c0-1.1-0.3-2.3-0.8-3.3c-0.5-0.9-1.2-1.8-1.9-2.5c-1-0.9-2-1.7-3.1-2.5
				c-1.2-0.9-2.3-1.8-3.5-2.7c-0.9-0.8-1.7-1.8-2.2-3c-0.6-1.3-0.9-2.7-0.9-4.1c-0.1-2.2,0.5-4.4,1.8-6.2c1.4-1.6,3.4-2.4,5.5-2.3
				C405.4,298.6,407.5,299.5,408.9,301.1"/>
			<path class="st5" d="M419.2,330c1,1.2,2.5,1.9,4,1.8c1.6,0.1,3.1-0.5,4.1-1.8c0.9-1.4,1.4-3.1,1.3-4.7v-17.9
				c0.1-1.7-0.4-3.3-1.3-4.7c-1-1.2-2.5-1.9-4.1-1.8c-1.5-0.1-3,0.5-4,1.8c-0.9,1.4-1.4,3.1-1.3,4.7v17.9
				C417.8,326.9,418.3,328.6,419.2,330 M417.6,301.2c1.4-1.6,3.5-2.5,5.6-2.4c2.2-0.2,4.3,0.7,5.7,2.4c1.3,1.8,2,4.1,1.9,6.3v17.6
				c0.1,2.3-0.6,4.5-1.9,6.3c-1.4,1.7-3.6,2.5-5.7,2.4c-2.1,0.2-4.2-0.7-5.6-2.4c-1.3-1.8-2-4.1-1.9-6.3v-17.6
				C415.6,305.2,416.2,303,417.6,301.2"/>
		</g>
	</g>
</g>
</svg>
