<svg xmlns="http://www.w3.org/2000/svg" viewBox="0 0 33.1 33.1"><defs><style>.cls-1{fill:#f0b817;}</style></defs><g id="Capa_2" data-name="Capa 2"><g id="Capa_1-2" data-name="Capa 1"><path class="cls-1" d="M25.32,5.91a1.94,1.94,0,1,0,1.94,1.94A1.94,1.94,0,0,0,25.32,5.91Z"/><path class="cls-1" d="M16.69,8.4a8.15,8.15,0,1,0,8.15,8.15A8.16,8.16,0,0,0,16.69,8.4Zm0,13.37a5.22,5.22,0,1,1,5.22-5.22A5.22,5.22,0,0,1,16.69,21.77Z"/><path class="cls-1" d="M23.16,33.1H9.94A10,10,0,0,1,0,23.16V9.94A10,10,0,0,1,9.94,0H23.16A10,10,0,0,1,33.1,9.94V23.16A10,10,0,0,1,23.16,33.1ZM9.94,3.11A6.85,6.85,0,0,0,3.11,9.94V23.16A6.84,6.84,0,0,0,9.94,30H23.16A6.83,6.83,0,0,0,30,23.16V9.94a6.84,6.84,0,0,0-6.83-6.83Z"/></g></g></svg>