<svg xmlns="http://www.w3.org/2000/svg" viewBox="0 0 148.59 148.27"><defs><style>.cls-1{fill:#14455b;}.cls-2{fill:#16b28c;}.cls-3{fill:#efb718;}.cls-4{fill:#e05b19;}.cls-5{fill:#dd2b19;}.cls-6{fill:#fff;}</style></defs><g id="Capa_2" data-name="Capa 2"><g id="Capa_1-2" data-name="Capa 1"><path class="cls-1" d="M31.84,64.39a11.61,11.61,0,0,0,1.52-6.26V33a15.66,15.66,0,0,0-1.17-6.21,12.88,12.88,0,0,0-3.39-4.69,15,15,0,0,0-5.3-3,21.31,21.31,0,0,0-6.82-1H1.74a1.61,1.61,0,0,0-1.31.52A1.94,1.94,0,0,0,0,19.9v98.88a2,2,0,0,0,.43,1.3,1.61,1.61,0,0,0,1.31.52H16.68q7.65,0,12.17-4c.26-.24.52-.49.76-.74l3.73-38.46a10.68,10.68,0,0,0-1.5-5.25,11.31,11.31,0,0,0-4.21-3.86A11.27,11.27,0,0,0,31.84,64.39ZM21.72,105.66a5.82,5.82,0,0,1-1.17,3.73,4.63,4.63,0,0,1-3.87,1.48h-5V73.08h5a4.67,4.67,0,0,1,3.82,1.47,5.7,5.7,0,0,1,1.22,3.74Zm0-47.53a5.7,5.7,0,0,1-1.22,3.74,4.67,4.67,0,0,1-3.82,1.47h-5V27.81h5a4.75,4.75,0,0,1,3.82,1.43A5.67,5.67,0,0,1,21.72,33Z"/><path class="cls-2" d="M58.21,120.08a2,2,0,0,1-.44-1.3V77.17L52.22,19.81a2.3,2.3,0,0,0-.53-1.21,1.48,1.48,0,0,0-1.21-.52H40.66a1.5,1.5,0,0,0-1.22.52,2.28,2.28,0,0,0-.52,1.21l-5.58,57.6c0,.29,0,.58,0,.88v27.37a14.06,14.06,0,0,1-3.75,10.21l-.25,2.56a2,2,0,0,0,.48,1.48,2.17,2.17,0,0,0,1.78.69h4.26a5.28,5.28,0,0,0,3.61-1.26,4.55,4.55,0,0,0,1.6-3.08l.87-14h7.22l.86,14a4.57,4.57,0,0,0,1.61,3.08,5.28,5.28,0,0,0,3.61,1.26h4.25A1.58,1.58,0,0,1,58.21,120.08ZM42.57,92.54l3-49.44,3,49.44Z"/><path class="cls-3" d="M33.36,78.29v27.37a14.06,14.06,0,0,1-3.75,10.21l3.73-38.46C33.36,77.7,33.36,78,33.36,78.29Z"/><path class="cls-3" d="M90.81,116.67a12.62,12.62,0,0,1-3.3-4.57,15.25,15.25,0,0,1-1.14-6V75.4c-.31-.21-.63-.4-1-.59.33-.18.65-.38,1-.58V32.63a14.75,14.75,0,0,1,2.22-8.27,12.46,12.46,0,0,0-2-2.2,16.14,16.14,0,0,0-5.21-3,20.18,20.18,0,0,0-6.78-1.08H59.51a1.58,1.58,0,0,0-1.3.52,2,2,0,0,0-.44,1.3V77.17l4,41.26a2,2,0,0,1-.47,1.48,2.19,2.19,0,0,1-1.78.69h4.86a4.78,4.78,0,0,0,3.78-1.43,5.41,5.41,0,0,0,1.26-3.7V79.59h5A4.7,4.7,0,0,1,78.32,81,5.71,5.71,0,0,1,79.5,84.8v30.67a5.41,5.41,0,0,0,1.26,3.7,4.78,4.78,0,0,0,3.78,1.43H89.4a1.58,1.58,0,0,0,1.3-.52,1.92,1.92,0,0,0,.44-1.3V117Zm-11.31-52a5.67,5.67,0,0,1-1.22,3.73,4.64,4.64,0,0,1-3.82,1.48h-5v-42h5a4.68,4.68,0,0,1,3.78,1.48A5.52,5.52,0,0,1,79.5,33Z"/><path class="cls-1" d="M61.3,119.91a2.19,2.19,0,0,1-1.78.69h0a1.58,1.58,0,0,1-1.3-.52,2,2,0,0,1-.44-1.3V77.17l4,41.26A2,2,0,0,1,61.3,119.91Z"/><path class="cls-4" d="M114.41,22a15,15,0,0,0-5.16-2.92,20.6,20.6,0,0,0-6.64-1c-5.14,0-9.12,1.3-12,3.89a11.91,11.91,0,0,0-2,2.39A13.61,13.61,0,0,1,90,26.85,15.78,15.78,0,0,1,91.14,33V64.65a11.64,11.64,0,0,1-1.52,6.25,11.09,11.09,0,0,1-3.25,3.33V75.4a11,11,0,0,1,3.25,3.28,11.24,11.24,0,0,1,1.52,6.12V117a15.23,15.23,0,0,0,4.79,2.64,20.69,20.69,0,0,0,6.68,1q7.69,0,12-3.89l.65-.63V22.8C115,22.52,114.69,22.26,114.41,22Zm-6.9,84a5.39,5.39,0,0,1-1.22,3.68,5.59,5.59,0,0,1-7.4,0,5.43,5.43,0,0,1-1.19-3.68V32.63A5.35,5.35,0,0,1,98.93,29a5.59,5.59,0,0,1,7.4,0,5.48,5.48,0,0,1,1.18,3.68Z"/><path class="cls-5" d="M91.14,33V64.65a11.64,11.64,0,0,1-1.52,6.25,11.09,11.09,0,0,1-3.25,3.33V32.63a14.75,14.75,0,0,1,2.22-8.27A13.61,13.61,0,0,1,90,26.85,15.78,15.78,0,0,1,91.14,33Z"/><path class="cls-5" d="M91.14,84.8V117l-.33-.28a12.62,12.62,0,0,1-3.3-4.57,15.25,15.25,0,0,1-1.14-6V75.4a11,11,0,0,1,3.25,3.28A11.24,11.24,0,0,1,91.14,84.8Z"/><path class="cls-5" d="M148.15,18.6a1.58,1.58,0,0,0-1.3-.52H142a5.37,5.37,0,0,0-3.66,1.21A4.1,4.1,0,0,0,137,22.51l.86,55q-.87-3.74-1.95-8.87T133.6,57.83q-1.17-5.7-2.3-11.43t-2.09-10.6c-.63-3.24-1.16-6.07-1.56-8.47s-.67-4.07-.78-5a4.5,4.5,0,0,0-1.52-3.08,5.19,5.19,0,0,0-3.52-1.17H117a1.58,1.58,0,0,0-1.3.52,1.94,1.94,0,0,0-.43,1.3v2.9a12.7,12.7,0,0,1,2.48,3.78,15.25,15.25,0,0,1,1.14,6.05v73.42a13.94,13.94,0,0,1-3.62,10v2.7a2,2,0,0,0,.43,1.3,1.58,1.58,0,0,0,1.3.52h4.87a4.92,4.92,0,0,0,3.82-1.43,5,5,0,0,0,1.22-3.7L126,64.13c.46,2.89,1,6.11,1.78,9.64s1.49,7.12,2.3,10.77,1.62,7.23,2.43,10.73,1.55,6.72,2.22,9.65,1.22,5.43,1.65,7.51a26.43,26.43,0,0,1,.65,4.18,4.7,4.7,0,0,0,1.48,2.91A5.07,5.07,0,0,0,142,120.6h4.86a1.58,1.58,0,0,0,1.3-.52,2,2,0,0,0,.44-1.3V19.9A2,2,0,0,0,148.15,18.6Z"/><path class="cls-3" d="M118.85,32.63v73.42a13.94,13.94,0,0,1-3.62,10V22.8a12.7,12.7,0,0,1,2.48,3.78A15.25,15.25,0,0,1,118.85,32.63Z"/><path class="cls-4" d="M110.35,4h-.1a.42.42,0,0,1-.4-.3s-.09-.29-.3-.29h-.72v5a7.08,7.08,0,0,1-4.8,6.7v4a.41.41,0,0,1-.82,0V15.34a8.78,8.78,0,0,1-1,.13v3.65a.41.41,0,1,1-.82,0V15.47a7.17,7.17,0,0,1-1-.14,7,7,0,0,1-1.43.15,7.07,7.07,0,0,1-6.61-4.55.41.41,0,0,1,.24-.53l10.7-4.07V2.82a2.81,2.81,0,0,1,5.61-.2h.73a1.17,1.17,0,0,1,1.1.91A.4.4,0,0,1,110.35,4Z"/><path class="cls-6" d="M40.65,132.85a.29.29,0,0,1,.19.06.23.23,0,0,1,.08.2v.44a.8.8,0,0,1-.18.54.63.63,0,0,1-.48.2H38.68v5.54h1.71a.32.32,0,0,1,.2.06.24.24,0,0,1,.07.19v.44a.77.77,0,0,1-.18.54.59.59,0,0,1-.47.21H38.68v5.35h1.58a.6.6,0,0,1,.48.21.8.8,0,0,1,.18.54v.44a.2.2,0,0,1-.08.19.25.25,0,0,1-.19.07H37.21A.26.26,0,0,1,37,148a.31.31,0,0,1-.06-.19V133.12a.29.29,0,0,1,.06-.19.26.26,0,0,1,.2-.08Z"/><path class="cls-6" d="M50.78,138.18a.74.74,0,0,1-.57-.22.81.81,0,0,1-.18-.55v-2.55a.84.84,0,0,0-.19-.56.7.7,0,0,0-.56-.21.71.71,0,0,0-.57.21.84.84,0,0,0-.18.56,10.48,10.48,0,0,0,.14,1.81A7.42,7.42,0,0,0,49,138a6.74,6.74,0,0,0,.53,1l.58.93c.2.31.4.64.59,1a7,7,0,0,1,.52,1.22,9.29,9.29,0,0,1,.37,1.64,15.79,15.79,0,0,1,.14,2.23,2.25,2.25,0,0,1-.18.92,1.8,1.8,0,0,1-.5.69,2.12,2.12,0,0,1-.79.45,3.2,3.2,0,0,1-1,.15,2.62,2.62,0,0,1-1.83-.59,2.09,2.09,0,0,1-.65-1.62v-3.18a.26.26,0,0,1,.07-.19.23.23,0,0,1,.19-.08h.72a.7.7,0,0,1,.56.21.8.8,0,0,1,.19.55v2.69a.81.81,0,0,0,.19.56.7.7,0,0,0,.56.21.71.71,0,0,0,.57-.21.86.86,0,0,0,.18-.56,14.17,14.17,0,0,0-.14-2.12,7.87,7.87,0,0,0-.37-1.52,5.36,5.36,0,0,0-.52-1.1c-.19-.32-.39-.62-.58-.91s-.4-.58-.59-.89a5.36,5.36,0,0,1-.52-1.1,7.61,7.61,0,0,1-.37-1.48,13.51,13.51,0,0,1-.14-2.08,2.25,2.25,0,0,1,.18-.92,1.92,1.92,0,0,1,.5-.7,2.29,2.29,0,0,1,.78-.44,3,3,0,0,1,1-.16,2.58,2.58,0,0,1,1.82.6,2.05,2.05,0,0,1,.66,1.62v3a.32.32,0,0,1-.07.2.24.24,0,0,1-.19.08Z"/><path class="cls-6" d="M62,132.85a.29.29,0,0,1,.19.06.26.26,0,0,1,.08.2v.44a.8.8,0,0,1-.18.54.63.63,0,0,1-.48.2h-.8V147.6a.44.44,0,0,1-.13.33.45.45,0,0,1-.33.14h-.8a.48.48,0,0,1-.47-.47V134.29h-.8a.62.62,0,0,1-.47-.2.8.8,0,0,1-.18-.54v-.44a.26.26,0,0,1,.07-.2.32.32,0,0,1,.2-.06Z"/><path class="cls-6" d="M73.11,146.06a2.09,2.09,0,0,1-.65,1.62,2.57,2.57,0,0,1-1.82.59,3.22,3.22,0,0,1-1-.15,2.16,2.16,0,0,1-.78-.45,1.94,1.94,0,0,1-.51-.69,2.43,2.43,0,0,1-.17-.92V133.12a.29.29,0,0,1,.06-.19.26.26,0,0,1,.2-.08h.72a.8.8,0,0,1,.54.18.6.6,0,0,1,.21.48v12.55a.86.86,0,0,0,.18.56.87.87,0,0,0,1.13,0,.86.86,0,0,0,.18-.56V133.51a.6.6,0,0,1,.21-.48.8.8,0,0,1,.54-.18h.72a.26.26,0,0,1,.2.08.29.29,0,0,1,.06.19Z"/><path class="cls-6" d="M81.86,132.85a3.13,3.13,0,0,1,1,.15,2.49,2.49,0,0,1,.78.45,1.93,1.93,0,0,1,.49.7,2.29,2.29,0,0,1,.18.92v10.78a2.05,2.05,0,0,1-.66,1.62,2.58,2.58,0,0,1-1.82.6H79.61a.24.24,0,0,1-.19-.08.32.32,0,0,1-.07-.19V133.12a.29.29,0,0,1,.07-.19.24.24,0,0,1,.19-.08Zm0,13.77a.68.68,0,0,0,.57-.22.83.83,0,0,0,.18-.55V135.07a.86.86,0,0,0-.18-.56.69.69,0,0,0-.57-.22h-.75v12.33Z"/><path class="cls-6" d="M90.55,133.51a.63.63,0,0,1,.2-.48.81.81,0,0,1,.55-.18H92a.24.24,0,0,1,.19.08.29.29,0,0,1,.07.19V147.6a.48.48,0,0,1-.47.47H91a.45.45,0,0,1-.33-.14.44.44,0,0,1-.13-.33Z"/><path class="cls-6" d="M98.52,134.86a2,2,0,0,1,.65-1.62,2.58,2.58,0,0,1,1.82-.6,3,3,0,0,1,1,.16,2.29,2.29,0,0,1,.78.44,2.07,2.07,0,0,1,.51.7,2.43,2.43,0,0,1,.17.92v11.2a2.09,2.09,0,0,1-.65,1.62,2.6,2.6,0,0,1-1.83.59,3.31,3.31,0,0,1-1-.15,2.16,2.16,0,0,1-.78-.45,2,2,0,0,1-.5-.69,2.43,2.43,0,0,1-.17-.92Zm3.22,0a.84.84,0,0,0-.18-.56.87.87,0,0,0-1.13,0,.84.84,0,0,0-.18.56v11.2a.86.86,0,0,0,.18.56.85.85,0,0,0,1.12,0,.81.81,0,0,0,.19-.56Z"/><path class="cls-6" d="M113.68,138.18a.72.72,0,0,1-.56-.22.81.81,0,0,1-.18-.55v-2.55a.84.84,0,0,0-.19-.56.87.87,0,0,0-1.13,0,.84.84,0,0,0-.18.56,10.48,10.48,0,0,0,.14,1.81,7.42,7.42,0,0,0,.36,1.34,7.75,7.75,0,0,0,.52,1l.59.93c.2.31.4.64.59,1a7,7,0,0,1,.52,1.22,9.29,9.29,0,0,1,.37,1.64,15.94,15.94,0,0,1,.13,2.23,2.25,2.25,0,0,1-.17.92,1.92,1.92,0,0,1-.5.69,2.12,2.12,0,0,1-.79.45,3.24,3.24,0,0,1-1,.15,2.62,2.62,0,0,1-1.83-.59,2.09,2.09,0,0,1-.65-1.62v-3.18a.26.26,0,0,1,.07-.19.23.23,0,0,1,.19-.08h.72a.7.7,0,0,1,.56.21.8.8,0,0,1,.19.55v2.69a.81.81,0,0,0,.19.56.7.7,0,0,0,.56.21.73.73,0,0,0,.57-.21.86.86,0,0,0,.18-.56,14.17,14.17,0,0,0-.14-2.12,7.87,7.87,0,0,0-.37-1.52,5.93,5.93,0,0,0-.52-1.1c-.19-.32-.39-.62-.59-.91s-.39-.58-.58-.89a5.93,5.93,0,0,1-.53-1.1,8.45,8.45,0,0,1-.36-1.48,13.51,13.51,0,0,1-.14-2.08,2.25,2.25,0,0,1,.18-.92,1.92,1.92,0,0,1,.5-.7,2.29,2.29,0,0,1,.78-.44,3,3,0,0,1,1-.16,2.58,2.58,0,0,1,1.82.6,2,2,0,0,1,.65,1.62v3a.32.32,0,0,1-.06.2.24.24,0,0,1-.19.08Z"/><path class="cls-6" d="M2.6,10.9a.64.64,0,0,1,.14-.42.5.5,0,0,1,.41-.16h.56a.17.17,0,0,1,.14.06.22.22,0,0,1,0,.14V12a1.57,1.57,0,0,1-.49,1.22A2,2,0,0,1,2,13.65a2.58,2.58,0,0,1-.76-.11A1.68,1.68,0,0,1,.7,13.2a1.4,1.4,0,0,1-.38-.52A1.67,1.67,0,0,1,.19,12V3.6A1.57,1.57,0,0,1,.68,2.38,2,2,0,0,1,2,1.94a2.29,2.29,0,0,1,.76.12,1.48,1.48,0,0,1,.59.33,1.4,1.4,0,0,1,.38.52,1.67,1.67,0,0,1,.13.69V5.31a.25.25,0,0,1,0,.15.16.16,0,0,1-.14,0H3.17a.54.54,0,0,1-.42-.15.6.6,0,0,1-.15-.42V3.6a.64.64,0,0,0-.13-.42A.52.52,0,0,0,2,3a.54.54,0,0,0-.42.16.64.64,0,0,0-.14.42V12a.64.64,0,0,0,.14.42.51.51,0,0,0,.42.16.51.51,0,0,0,.42-.16A.59.59,0,0,0,2.6,12Z"/><path class="cls-6" d="M8,3.6a1.57,1.57,0,0,1,.49-1.22,2,2,0,0,1,1.36-.44,2.29,2.29,0,0,1,.76.12,1.48,1.48,0,0,1,.59.33,1.4,1.4,0,0,1,.38.52,1.84,1.84,0,0,1,.13.69V12a1.57,1.57,0,0,1-.49,1.22,2,2,0,0,1-1.37.44,2.53,2.53,0,0,1-.76-.11,1.72,1.72,0,0,1-.59-.34,1.38,1.38,0,0,1-.37-.52A1.67,1.67,0,0,1,8,12Zm2.41,0a.64.64,0,0,0-.13-.42A.52.52,0,0,0,9.85,3a.54.54,0,0,0-.42.16.64.64,0,0,0-.14.42V12a.64.64,0,0,0,.14.42.63.63,0,0,0,.84,0,.59.59,0,0,0,.14-.42Z"/><path class="cls-6" d="M16.58,13.5a.19.19,0,0,1-.15-.06.24.24,0,0,1,0-.15V2.3a.24.24,0,0,1,0-.15.19.19,0,0,1,.15-.06h.54a.62.62,0,0,1,.41.14.46.46,0,0,1,.15.36v9.82h1.19a.47.47,0,0,1,.36.16.59.59,0,0,1,.13.41v.32a.18.18,0,0,1-.06.15.22.22,0,0,1-.14.05Z"/><path class="cls-6" d="M23.77,3.6a1.57,1.57,0,0,1,.49-1.22,2,2,0,0,1,1.36-.44,2.29,2.29,0,0,1,.76.12,1.48,1.48,0,0,1,.59.33,1.4,1.4,0,0,1,.38.52,1.67,1.67,0,0,1,.13.69V12A1.57,1.57,0,0,1,27,13.21a2,2,0,0,1-1.37.44,2.58,2.58,0,0,1-.76-.11,1.59,1.59,0,0,1-.58-.34,1.4,1.4,0,0,1-.38-.52,1.67,1.67,0,0,1-.13-.69Zm2.41,0a.64.64,0,0,0-.13-.42A.52.52,0,0,0,25.62,3a.54.54,0,0,0-.42.16.64.64,0,0,0-.14.42V12a.64.64,0,0,0,.14.42.63.63,0,0,0,.84,0,.59.59,0,0,0,.14-.42Z"/><path class="cls-6" d="M34,2.09a2.19,2.19,0,0,1,.75.12,1.93,1.93,0,0,1,.58.34,1.33,1.33,0,0,1,.38.52,1.88,1.88,0,0,1,.13.69V7.27a1.32,1.32,0,0,1-.17.7,1.22,1.22,0,0,1-.47.43,1.16,1.16,0,0,1,.64,1.12v3.77a.25.25,0,0,1,0,.15.18.18,0,0,1-.15.06h-.54a.57.57,0,0,1-.42-.16.64.64,0,0,1-.14-.41V9.52a.6.6,0,0,0-.13-.42A.52.52,0,0,0,34,8.94h-.56v4a.64.64,0,0,1-.14.41.54.54,0,0,1-.42.16h-.54a.2.2,0,0,1-.15-.06.24.24,0,0,1,0-.15V2.3a.24.24,0,0,1,0-.15.2.2,0,0,1,.15-.06Zm-.58,1.09V7.85H34a.52.52,0,0,0,.43-.16.64.64,0,0,0,.13-.42V3.76a.59.59,0,0,0-.14-.42A.51.51,0,0,0,34,3.18Z"/><path class="cls-6" d="M42.93,2.09a.25.25,0,0,1,.15.05.21.21,0,0,1,.05.15v.33A.58.58,0,0,1,43,3a.47.47,0,0,1-.36.16H41.45V7.32h1.29a.22.22,0,0,1,.14,0,.18.18,0,0,1,.06.15v.32a.59.59,0,0,1-.13.41.46.46,0,0,1-.36.15h-1v4h1.19a.47.47,0,0,1,.36.16.59.59,0,0,1,.13.41v.32a.21.21,0,0,1-.05.15.25.25,0,0,1-.15.05H40.35a.17.17,0,0,1-.14-.06.2.2,0,0,1-.05-.15V2.3a.2.2,0,0,1,.05-.15.17.17,0,0,1,.14-.06Z"/><path class="cls-6" d="M50.52,6.08a.54.54,0,0,1-.42-.15A.59.59,0,0,1,50,5.51V3.6a.64.64,0,0,0-.14-.42A.54.54,0,0,0,49.4,3a.52.52,0,0,0-.43.16.64.64,0,0,0-.13.42A7.59,7.59,0,0,0,48.94,5a5.88,5.88,0,0,0,.27,1,5.67,5.67,0,0,0,.39.78l.44.7c.15.23.3.48.44.74a5,5,0,0,1,.4.92,8.27,8.27,0,0,1,.27,1.22,11.61,11.61,0,0,1,.1,1.67,1.67,1.67,0,0,1-.13.69,1.4,1.4,0,0,1-.38.52,1.68,1.68,0,0,1-.58.34,2.63,2.63,0,0,1-.76.11A2,2,0,0,1,48,13.21,1.57,1.57,0,0,1,47.54,12V9.61a.22.22,0,0,1,.05-.14.17.17,0,0,1,.14-.06h.55a.54.54,0,0,1,.42.16.6.6,0,0,1,.14.41v2a.59.59,0,0,0,.14.42.63.63,0,0,0,.84,0A.64.64,0,0,0,50,12a11.82,11.82,0,0,0-.1-1.59,6,6,0,0,0-.28-1.13,5,5,0,0,0-.39-.83C49,8.2,48.9,8,48.75,7.76s-.3-.44-.44-.67a3.9,3.9,0,0,1-.39-.82,6,6,0,0,1-.28-1.11,10,10,0,0,1-.1-1.56,1.67,1.67,0,0,1,.13-.69,1.4,1.4,0,0,1,.38-.52,1.51,1.51,0,0,1,.58-.33,2.3,2.3,0,0,1,.77-.12,2,2,0,0,1,1.36.44,1.57,1.57,0,0,1,.49,1.22V5.88a.2.2,0,0,1,0,.15.16.16,0,0,1-.14,0Z"/><path class="cls-6" d="M64.72,2.09a2.29,2.29,0,0,1,.76.12,1.83,1.83,0,0,1,.58.33,1.54,1.54,0,0,1,.37.53,1.7,1.7,0,0,1,.13.69v8.07a1.54,1.54,0,0,1-.49,1.22,1.93,1.93,0,0,1-1.37.45H63a.17.17,0,0,1-.14-.06.2.2,0,0,1,0-.15V2.3a.2.2,0,0,1,0-.15A.17.17,0,0,1,63,2.09Zm0,10.32a.52.52,0,0,0,.43-.16.64.64,0,0,0,.13-.42V3.76a.64.64,0,0,0-.13-.42.5.5,0,0,0-.43-.16h-.56v9.23Z"/><path class="cls-6" d="M74,2.09a.2.2,0,0,1,.14.05.18.18,0,0,1,.06.15v.33a.58.58,0,0,1-.13.4.47.47,0,0,1-.36.16H72.53V7.32h1.29a.24.24,0,0,1,.14,0,.18.18,0,0,1,.06.15v.32a.6.6,0,0,1-.14.41.45.45,0,0,1-.35.15h-1v4h1.19a.47.47,0,0,1,.36.16.59.59,0,0,1,.13.41v.32a.18.18,0,0,1-.06.15.2.2,0,0,1-.14.05H71.43a.19.19,0,0,1-.15-.06.24.24,0,0,1,0-.15V2.3a.24.24,0,0,1,0-.15.19.19,0,0,1,.15-.06Z"/></g></g></svg>